<?xml version="1.0" standalone="no"?><!DOCTYPE svg PUBLIC "-//W3C//DTD SVG 1.1//EN" "http://www.w3.org/Graphics/SVG/1.1/DTD/svg11.dtd"><svg t="1721406591255" class="icon" viewBox="0 0 1024 1024" version="1.1" xmlns="http://www.w3.org/2000/svg" p-id="7344" xmlns:xlink="http://www.w3.org/1999/xlink" width="16" height="16"><path d="M512 64C336 64 192 208 192 384c0 51.2 12.8 99.2 32 140.8 48 96 252.8 406.4 259.2 419.2 6.4 9.6 16 16 25.6 16s22.4-6.4 25.6-16c9.6-12.8 211.2-323.2 259.2-419.2 22.4-44.8 32-92.8 32-140.8C832 208 688 64 512 64z m230.4 432c-35.2 73.6-172.8 281.6-230.4 371.2-57.6-89.6-192-300.8-230.4-371.2-16-35.2-25.6-73.6-25.6-112 0-140.8 115.2-256 256-256s256 115.2 256 256c0 38.4-9.6 76.8-25.6 112z" p-id="7345" fill="#8a8a8a"></path><path d="M512 224c-89.6 0-160 70.4-160 160s70.4 160 160 160 160-70.4 160-160-70.4-160-160-160z m0 256c-54.4 0-96-41.6-96-96s41.6-96 96-96 96 41.6 96 96-41.6 96-96 96z" p-id="7346" fill="#8a8a8a"></path></svg>