<?xml version="1.0" standalone="no"?><!DOCTYPE svg PUBLIC "-//W3C//DTD SVG 1.1//EN" "http://www.w3.org/Graphics/SVG/1.1/DTD/svg11.dtd"><svg t="1721706357473" class="icon" viewBox="0 0 1024 1024" version="1.1" xmlns="http://www.w3.org/2000/svg" p-id="9653" width="48" height="48" xmlns:xlink="http://www.w3.org/1999/xlink"><path d="M736.768 905.728c-134.656 0-243.712-109.056-243.712-243.712s109.056-243.712 243.712-243.712 243.712 109.056 243.712 243.712-109.056 243.712-243.712 243.712z m0-40.96c112.128 0 203.264-91.136 203.264-203.264s-91.136-203.264-203.264-203.264-203.264 91.136-203.264 203.264 91.136 203.264 203.264 203.264z" p-id="9654" fill="#8a8a8a"></path><path d="M541.696 830.976H107.008V175.104h567.296v209.408c0 12.288 9.216 23.552 22.528 27.136h0.512c19.968 5.632 39.936-8.192 39.936-27.136V146.432c0-15.872-14.336-28.672-31.744-28.672H75.264c-17.408 0-31.744 12.8-31.744 28.672v713.216c0 15.872 14.336 28.672 31.744 28.672h453.632c31.232 0 45.568-35.328 21.504-53.76l-1.024-1.024c-2.048-1.536-5.12-2.56-7.68-2.56z" p-id="9655" fill="#8a8a8a"></path><path d="M270.848 346.624h-48.128c-9.216 0-16.896-7.68-16.896-16.896V281.6c0-9.216 7.68-16.896 16.896-16.896h48.128c9.216 0 16.896 7.68 16.896 16.896v48.128c0 9.728-7.168 16.896-16.896 16.896zM414.72 346.624h-48.128c-9.216 0-16.896-7.68-16.896-16.896V281.6c0-9.216 7.68-16.896 16.896-16.896H414.72c9.216 0 16.896 7.68 16.896 16.896v48.128c-0.512 9.728-7.68 16.896-16.896 16.896zM558.08 346.624h-48.128c-9.216 0-16.896-7.68-16.896-16.896V281.6c0-9.216 7.68-16.896 16.896-16.896h48.128c9.216 0 16.896 7.68 16.896 16.896v48.128c0 9.728-7.68 16.896-16.896 16.896z" opacity=".56" p-id="9656" fill="#8a8a8a"></path><path d="M270.848 544.256h-48.128c-9.216 0-16.896-7.68-16.896-16.896v-48.128c0-9.216 7.68-16.896 16.896-16.896h48.128c9.216 0 16.896 7.68 16.896 16.896v48.128c0 9.216-7.168 16.896-16.896 16.896zM414.72 544.256h-48.128c-9.216 0-16.896-7.68-16.896-16.896v-48.128c0-9.216 7.68-16.896 16.896-16.896H414.72c9.216 0 16.896 7.68 16.896 16.896v48.128c-0.512 9.216-7.68 16.896-16.896 16.896z" opacity=".56" p-id="9657" fill="#8a8a8a"></path><path d="M270.848 741.376h-48.128c-9.216 0-16.896-7.68-16.896-16.896v-48.128c0-9.216 7.68-16.896 16.896-16.896h48.128c9.216 0 16.896 7.68 16.896 16.896v48.128c0 9.216-7.168 16.896-16.896 16.896zM414.72 741.376h-48.128c-9.216 0-16.896-7.68-16.896-16.896v-48.128c0-9.216 7.68-16.896 16.896-16.896H414.72c9.216 0 16.896 7.68 16.896 16.896v48.128c-0.512 9.216-7.68 16.896-16.896 16.896z" opacity=".56" p-id="9658" fill="#8a8a8a"></path><path d="M632.832 744.448V563.2c0-8.704-7.68-15.872-17.408-15.872s-17.408 7.168-17.408 15.872v193.536c0 16.384 14.336 29.696 32.256 29.696h226.816c9.728 0 17.408-7.168 17.408-15.872 0-8.704-7.68-15.872-17.408-15.872h-213.504c-5.632 0.512-10.752-4.096-10.752-10.24z" p-id="9659" fill="#8a8a8a"></path><path d="M662.016 720.384v-156.16c0.512-0.512 1.536-1.536 1.536-2.048 2.048-6.656 6.656-8.704 12.288-10.752 1.024-0.512 1.536-1.024 2.56-1.024h182.272c1.024 0.512 1.536 1.024 2.56 1.024 7.68 2.048 13.824 9.216 13.824 18.944-0.512 48.128 0 96.256 0 143.872 0 1.536 0.512 2.56 0 3.584-1.024 3.072-2.048 6.144-4.096 8.704-4.608 5.632-10.752 7.168-17.92 7.168h-169.472c-10.752 1.024-19.456-2.048-23.552-13.312z m107.52-145.408h-74.24c-4.096 0-4.096 0-4.096 4.096v125.952c0 4.096 0 4.096 3.584 4.096h148.992c3.584 0 3.584 0 3.584-4.096v-125.952c0-4.096 0-4.096-4.096-4.096h-73.728z" p-id="9660" fill="#8a8a8a"></path><path d="M751.104 683.52c-3.584-0.512-6.656-1.536-8.192-4.608-1.536-3.072 0-5.632 1.536-8.704 3.072-5.12 5.632-10.24 8.192-15.36 4.096-7.68 8.704-15.36 12.8-23.552 3.072-5.632 6.144-11.264 9.216-17.408 1.536-3.584 3.584-6.656 5.632-9.728 2.048-3.584 9.216-4.608 13.312-1.536 3.072 2.56 3.072 6.144 0.512 10.752-3.072 5.632-6.144 11.264-9.216 17.408-3.072 5.632-6.144 11.264-9.216 16.384-2.048 4.096-4.096 7.68-6.144 11.776-2.56 4.608-5.12 9.216-7.68 13.312-1.024 2.048-2.048 3.584-3.072 5.632-1.536 4.608-4.608 5.632-7.68 5.632z m68.608-40.96c-4.096-3.584-8.192-6.656-12.288-9.728l-9.216-7.68c-3.584-3.584-3.072-7.168 0.512-9.728s8.704-2.048 12.288 0.512c8.192 7.168 16.896 13.824 25.6 20.48 1.024 1.024 2.56 2.048 3.072 3.072 1.536 2.048 1.536 5.12-0.512 7.168-7.168 5.632-13.824 11.264-20.992 17.408-2.048 2.048-4.608 3.584-6.656 5.632-4.608 4.096-11.264 3.584-14.848-1.536-1.536-2.56-0.512-6.144 2.56-8.704 6.656-5.632 13.312-11.264 20.48-16.896z m-101.376 0c6.656 5.632 13.312 11.264 19.968 16.384 2.56 2.048 5.12 4.096 4.096 7.68-1.024 3.072-4.096 5.12-7.168 5.12-2.56 0-5.632 0-7.68-1.536-9.216-7.168-17.92-14.336-26.624-21.504-1.536-1.536-3.072-3.584-3.072-5.632 0-1.536 1.536-4.096 3.072-5.12 8.704-7.68 17.92-14.848 27.136-22.016 4.096-3.584 10.752-2.048 13.824 2.048 2.048 2.56 0.512 6.144-2.56 8.704-7.168 5.12-13.824 10.24-20.992 15.872z" p-id="9661" fill="#8a8a8a"></path></svg>